# xmcd CD database file
#
# Track frame offsets:
#	150
#	25840
#	51820
#	71705
#	90920
#	105735
#	126190
#	136485
#	149320
#	159735
#	174905
#	191285
#	210720
#	222545
#	239475
#	258265
#	281890
#	300855
#
# Disc length: 4353 seconds
#
# Revision: 1
# Processed by: cddbd v1.5.2PL0 Copyright (c) Steve Scherf et al.
# Submitted via: CDex 1.70beta2
#
DISCID=0610ff12
DTITLE=The Style Council - Super Best
DYEAR=2009
DGENRE=Rock
TTITLE0=You Are The Best
TTITLE1=It Didn't Matter
TTITLE2=Top Peoples Health Farm
TTITLE3=Shout To The Top
TTITLE4=Speak Like a Child
TTITLE5=All Gone Away
TTITLE6=Angel
TTITLE7=Changing Of The Guard
TTITLE8=Blue Cafe
TTITLE9=Headstart For Happiness(LIVE)
TTITLE10=Tumbling Down
TTITLE11=The Cost of Loving
TTITLE12=Here's One That Got Away
TTITLE13=The Story Of Someone's Shoe
TTITLE14=Waiting
TTITLE15=Boy Who Cried Wolf
TTITLE16=How She Threw It All Away
TTITLE17=My Ever Changing Moods
EXTD=YEAR: 2009
EXTT0=
EXTT1=
EXTT2=
EXTT3=
EXTT4=
EXTT5=
EXTT6=
EXTT7=
EXTT8=
EXTT9=
EXTT10=
EXTT11=
EXTT12=
EXTT13=
EXTT14=
EXTT15=
EXTT16=
EXTT17=
PLAYORDER=
